<svg xmlns="http://www.w3.org/2000/svg" width="50" height="50" viewBox="0 0 50 50"><rect width="100%" height="100%" fill="#DDDDDD"/><path fill="#999999" d="M12.3 27.245h4.05v1.55h-5.93v-10.12h1.88zm8.3-5.74q.8 0 1.45.25.66.26 1.12.74.47.48.72 1.16.25.69.25 1.54t-.25 1.54q-.25.68-.72 1.16-.46.49-1.12.75-.65.25-1.45.25-.81 0-1.46-.25-.66-.26-1.13-.75-.46-.48-.72-1.16-.25-.69-.25-1.54t.25-1.54q.26-.68.72-1.16.47-.48 1.13-.74.65-.25 1.46-.25m0 6.06q.9 0 1.33-.6t.43-1.76-.43-1.77-1.33-.61q-.91 0-1.35.61t-.44 1.77q0 1.15.44 1.76.44.6 1.35.6m7.49-2.54q.32 0 .56-.08.24-.09.39-.24.16-.16.24-.38.08-.21.08-.47 0-.53-.32-.85-.31-.31-.95-.31t-.96.31q-.31.32-.31.85 0 .25.08.47.08.21.23.37.16.16.4.25.24.08.56.08m1.95 4.09q0-.21-.12-.34-.13-.13-.35-.21-.21-.07-.5-.11-.29-.03-.62-.05t-.67-.03q-.35-.01-.68-.06-.28.16-.46.38t-.18.51q0 .18.09.35.1.16.3.28.21.12.54.19.33.06.8.06.49 0 .84-.07t.57-.2q.23-.13.34-.31.1-.18.1-.39m-.34-7.26h2.06v.65q0 .3-.37.37l-.64.12q.15.38.15.82 0 .53-.22.96-.21.43-.59.73t-.89.47q-.52.16-1.11.16-.21 0-.41-.02-.19-.02-.38-.06-.34.21-.34.46 0 .22.2.32t.53.14.75.05.86.05q.44.03.86.12t.75.28.53.51q.2.33.2.84 0 .47-.24.92-.23.45-.68.8-.44.35-1.09.56-.64.22-1.47.22-.81 0-1.41-.16-.61-.16-1.01-.42-.39-.26-.59-.61-.2-.34-.2-.71 0-.5.31-.84.3-.34.83-.55-.28-.14-.45-.39-.17-.24-.17-.64 0-.16.06-.33.06-.18.18-.34.11-.17.29-.32.17-.15.41-.27-.55-.3-.86-.79t-.31-1.14q0-.54.21-.97.22-.43.6-.73.38-.31.9-.47t1.14-.16q.46 0 .87.1.4.09.74.27m6.33-.35q.8 0 1.46.25.65.26 1.12.74.46.48.71 1.16.26.69.26 1.54t-.26 1.54q-.25.68-.71 1.16-.47.49-1.12.75-.66.25-1.46.25t-1.46-.25q-.66-.26-1.12-.75-.47-.48-.72-1.16-.26-.69-.26-1.54t.26-1.54q.25-.68.72-1.16.46-.48 1.12-.74.66-.25 1.46-.25m0 6.06q.9 0 1.33-.6t.43-1.76-.43-1.77-1.33-.61q-.91 0-1.34.61-.44.61-.44 1.77 0 1.15.44 1.76.43.6 1.34.6"/></svg>