<svg xmlns="http://www.w3.org/2000/svg" width="246" height="180" viewBox="0 0 246 180"><rect width="100%" height="100%" fill="#DDDDDD"/><path fill="#999999" d="M56.12 100.52h-6.83V80.61h6.83q3.65 0 6.02 2.33 2.37 2.34 2.37 5.99v3.29q0 3.67-2.37 5.98-2.37 2.32-6.02 2.32m-.2-16.83h-2.64v13.77h2.64q2.15 0 3.36-1.45 1.22-1.45 1.22-3.79V88.9q0-2.31-1.22-3.76-1.21-1.45-3.36-1.45m24.06 16.83h-3.99q-.22-.51-.38-1.07-.15-.56-.22-1.14-.62 1.08-1.62 1.79-1.01.71-2.4.71-2.33 0-3.58-1.2-1.26-1.2-1.26-3.26 0-2.17 1.67-3.37 1.68-1.2 4.89-1.2h2.23v-1.17q0-1.07-.56-1.66-.56-.58-1.66-.58-.97 0-1.49.47-.53.47-.53 1.3l-3.85-.01-.02-.08q-.09-1.88 1.63-3.24t4.52-1.36q2.66 0 4.31 1.35 1.66 1.35 1.66 3.84v6.11q0 1.04.15 1.95.16.92.5 1.82m-7.64-2.67q1.05 0 1.87-.52t1.11-1.2v-2.09h-2.23q-1.27 0-1.93.64-.65.63-.65 1.53 0 .74.49 1.19t1.34.45m18-1.4q0-.66-.63-1.14-.64-.48-2.36-.85-2.62-.53-3.96-1.58-1.33-1.04-1.33-2.85 0-1.91 1.61-3.24 1.6-1.34 4.3-1.34 2.83 0 4.5 1.33 1.68 1.33 1.61 3.35l-.03.08h-3.86q0-.89-.56-1.45-.57-.56-1.66-.56-.97 0-1.53.47-.55.47-.55 1.19 0 .68.58 1.12.58.43 2.36.78 2.73.54 4.06 1.6 1.32 1.06 1.32 2.92 0 2-1.7 3.26-1.71 1.27-4.52 1.27-2.95 0-4.67-1.5-1.71-1.5-1.63-3.41l.03-.08h3.65q.04 1.19.78 1.72t1.93.53q1.1 0 1.68-.43.58-.44.58-1.19m10.34-17.26v8.41q.7-1.01 1.71-1.58t2.24-.57q2.31 0 3.63 1.54t1.32 4.75v8.78h-3.99v-8.8q0-1.73-.61-2.45-.61-.71-1.81-.71-.82 0-1.45.29t-1.04.83v10.84h-3.99V79.19zm25.25 14.06v.28q0 3.31-1.47 5.29-1.48 1.99-4.27 1.99-1.28 0-2.25-.54-.96-.54-1.63-1.58l-.3 1.83h-3.42V79.19h3.98v8.11q.64-.89 1.54-1.37.89-.48 2.05-.48 2.82 0 4.3 2.13 1.47 2.13 1.47 5.67m-3.98.28v-.28q0-2.16-.63-3.43-.64-1.26-2.17-1.26-.93 0-1.57.39t-1.01 1.11v6.26q.37.67 1.02 1.03.65.35 1.59.35 1.54 0 2.16-1.08.61-1.09.61-3.09m5.83-.26v-.28q0-3.31 1.84-5.42 1.85-2.12 5.12-2.12 3.28 0 5.14 2.11 1.86 2.1 1.86 5.43v.28q0 3.34-1.86 5.44-1.85 2.1-5.12 2.1-3.28 0-5.13-2.1t-1.85-5.44m3.98-.28v.28q0 2.03.71 3.25t2.29 1.22q1.55 0 2.27-1.23t.72-3.24v-.28q0-1.97-.73-3.22-.72-1.24-2.28-1.24-1.55 0-2.27 1.25-.71 1.25-.71 3.21m25.11 7.53h-3.99q-.22-.51-.38-1.07-.15-.56-.22-1.14-.62 1.08-1.62 1.79-1.01.71-2.4.71-2.33 0-3.58-1.2-1.26-1.2-1.26-3.26 0-2.17 1.67-3.37 1.68-1.2 4.89-1.2h2.23v-1.17q0-1.07-.56-1.66-.56-.58-1.65-.58-.98 0-1.5.47-.53.47-.53 1.3l-3.85-.01-.02-.08q-.09-1.88 1.63-3.24t4.53-1.36q2.65 0 4.3 1.35 1.66 1.35 1.66 3.84v6.11q0 1.04.15 1.95.16.92.5 1.82m-7.64-2.67q1.05 0 1.87-.52t1.11-1.2v-2.09h-2.23q-1.27 0-1.93.64-.65.63-.65 1.53 0 .74.49 1.19t1.34.45m18.21-12.23-.42 3.54-1.47-.04q-.88 0-1.46.37-.57.37-.87 1.04v9.99h-3.98V85.73h3.7l.18 2.18q.52-1.16 1.35-1.81.82-.65 1.9-.65.3 0 .56.05.25.05.51.12m.98 7.91v-.28q0-3.5 1.52-5.65 1.51-2.15 4.25-2.15 1.11 0 2 .48t1.56 1.37v-8.11h4.01v21.33h-3.44l-.32-1.8q-.7 1.02-1.65 1.55-.95.54-2.18.54-2.72 0-4.23-2-1.52-2-1.52-5.28m3.98-.28v.28q0 1.95.66 3.06t2.13 1.11q.86 0 1.51-.35.64-.34 1.05-1.01v-6.31q-.41-.69-1.05-1.08-.63-.39-1.48-.39-1.46 0-2.14 1.3-.68 1.29-.68 3.39m20.44 3.2q0-.66-.63-1.14-.64-.48-2.36-.85-2.63-.53-3.96-1.58-1.33-1.04-1.33-2.85 0-1.91 1.6-3.24 1.61-1.34 4.3-1.34 2.83 0 4.51 1.33 1.67 1.33 1.61 3.35l-.03.08h-3.86q0-.89-.56-1.45-.57-.56-1.67-.56-.97 0-1.52.47t-.55 1.19q0 .68.58 1.12.58.43 2.36.78 2.73.54 4.06 1.6 1.32 1.06 1.32 2.92 0 2-1.71 3.26-1.71 1.27-4.51 1.27-2.95 0-4.67-1.5-1.71-1.5-1.63-3.41l.03-.08h3.65q.04 1.19.78 1.72.73.53 1.92.53 1.11 0 1.69-.43.58-.44.58-1.19"/></svg>