<svg xmlns="http://www.w3.org/2000/svg" width="246" height="180" viewBox="0 0 246 180"><rect width="100%" height="100%" fill="#DDDDDD"/><path fill="#999999" d="M57.043 87.74v-4.39h3.28q2.08 0 3.08-1.09t1-3.03q0-1.76-1-2.82t-2.9-1.06q-1.64 0-2.76.96t-1.12 2.52h-5.67l-.04-.12q-.12-3.42 2.62-5.65 2.74-2.22 6.81-2.22 4.52 0 7.22 2.16 2.69 2.17 2.69 6.17 0 1.9-1.2 3.61t-3.31 2.68q2.43.86 3.7 2.64t1.27 4.14q0 4.01-2.91 6.3-2.92 2.29-7.46 2.29-4.07 0-6.98-2.15t-2.81-6.08l.04-.12h5.66q0 1.68 1.21 2.77 1.2 1.1 3.04 1.1 2.02 0 3.19-1.13 1.17-1.12 1.17-3.04 0-2.3-1.15-3.37t-3.39-1.07zm37.25-5.11v6.43q0 5.78-2.65 8.78-2.65 2.99-7.18 2.99-4.56 0-7.22-2.99-2.67-3-2.67-8.78v-6.43q0-5.76 2.66-8.78 2.65-3.01 7.19-3.01 4.53 0 7.2 3.01 2.67 3.02 2.67 8.78m-5.82 6.99v-7.59q0-3.46-1.04-5.07-1.05-1.61-3.01-1.61-1.98 0-3 1.6t-1.02 5.08v7.59q0 3.52 1.03 5.12 1.03 1.61 3.03 1.61 1.96 0 2.99-1.61 1.02-1.6 1.02-5.12m30.67 10.79h-10.01V71.26h10.01q5.34 0 8.8 3.41 3.47 3.42 3.47 8.76v4.83q0 5.36-3.47 8.76-3.46 3.39-8.8 3.39m-.3-24.64h-3.87v20.16h3.87q3.14 0 4.92-2.13 1.78-2.12 1.78-5.54v-4.87q0-3.38-1.78-5.5t-4.92-2.12m35.23 24.64h-5.85q-.32-.74-.55-1.56t-.33-1.68q-.9 1.58-2.37 2.62t-3.51 1.04q-3.41 0-5.25-1.75t-1.84-4.78q0-3.18 2.45-4.93 2.46-1.75 7.16-1.75h3.26V85.9q0-1.57-.82-2.43t-2.42-.86q-1.42 0-2.19.69t-.77 1.92l-5.65-.02-.02-.12q-.14-2.75 2.38-4.74 2.53-1.99 6.63-1.99 3.88 0 6.31 1.97 2.42 1.97 2.42 5.62v8.94q0 1.53.23 2.87t.73 2.66m-11.19-3.9q1.54 0 2.74-.76 1.2-.77 1.62-1.77v-3.06h-3.26q-1.86 0-2.82.93t-.96 2.25q0 1.08.72 1.75.72.66 1.96.66m18.46-17.76 3.66 12.57.24 1.2h.12l4.15-13.77h6.28l-8.79 24.9q-.92 2.33-2.5 3.92t-4.74 1.59q-.74 0-1.38-.12-.63-.12-1.53-.34l.68-4.27q.26.04.56.08t.54.04q1.45 0 2.23-.71t1.2-1.77l.68-1.68-7.69-21.64zm28.51 15.69q0-.96-.94-1.66-.93-.7-3.45-1.24-3.84-.78-5.79-2.31-1.96-1.53-1.96-4.17 0-2.81 2.36-4.76 2.35-1.95 6.29-1.95 4.15 0 6.6 1.94t2.35 4.91l-.04.12h-5.65q0-1.31-.83-2.13t-2.43-.82q-1.42 0-2.23.69t-.81 1.73q0 1.01.85 1.65t3.45 1.14q4.01.8 5.95 2.35t1.94 4.27q0 2.93-2.5 4.78t-6.61 1.85q-4.32 0-6.83-2.19-2.52-2.19-2.4-5l.04-.12h5.35q.06 1.74 1.14 2.53 1.08.78 2.82.78 1.62 0 2.47-.64.86-.64.86-1.75"/></svg>