<svg xmlns="http://www.w3.org/2000/svg" width="246" height="180" viewBox="0 0 246 180"><rect width="100%" height="100%" fill="#DDDDDD"/><path fill="#999999" d="m55.46 74.585 7.07 24.01.41 1.77h.13l.38-1.73 7.12-24.05h6.92l-11.12 32.7h-6.73l-11.1-32.7zm31.6 8.4v24.3H80.5v-24.3zm0-10.74v4.92H80.5v-4.92zm27.31 23.09v.47q0 5.44-2.42 8.69-2.43 3.26-7.01 3.26-2.11 0-3.69-.89-1.59-.88-2.69-2.59l-.49 3.01h-5.62v-35.04h6.54v13.32q1.05-1.46 2.52-2.25 1.48-.78 3.38-.78 4.63 0 7.06 3.49 2.42 3.49 2.42 9.31m-6.53.47v-.47q0-3.55-1.05-5.63-1.04-2.07-3.56-2.07-1.52 0-2.58.64t-1.66 1.83v10.28q.6 1.11 1.67 1.69t2.62.58q2.54 0 3.55-1.78 1.01-1.79 1.01-5.07m24.05-13-.69 5.81-2.41-.06q-1.46 0-2.4.6-.94.61-1.44 1.71v16.42h-6.53v-24.3h6.08l.3 3.59q.85-1.91 2.21-2.98 1.36-1.06 3.13-1.06.5 0 .91.08.42.08.84.19m23.45 24.48h-6.56q-.36-.83-.61-1.75-.26-.92-.37-1.89-1.02 1.78-2.67 2.94-1.65 1.17-3.94 1.17-3.82 0-5.88-1.96-2.07-1.97-2.07-5.36 0-3.57 2.75-5.54 2.75-1.96 8.03-1.96h3.66v-1.93q0-1.76-.92-2.72-.92-.97-2.72-.97-1.59 0-2.46.78-.86.77-.86 2.14l-6.33-.02-.03-.14q-.15-3.07 2.68-5.31 2.83-2.23 7.43-2.23 4.36 0 7.08 2.21 2.71 2.21 2.71 6.3v10.04q0 1.71.26 3.21.26 1.51.82 2.99m-12.55-4.38q1.73 0 3.07-.85 1.35-.86 1.82-1.98v-3.44h-3.66q-2.09 0-3.17 1.05-1.07 1.04-1.07 2.52 0 1.22.81 1.96.8.74 2.2.74m16.33-19.92h6.11l.29 3.48q1.21-1.87 2.98-2.9 1.78-1.03 3.98-1.03 3.68 0 5.75 2.31t2.07 7.26v15.18h-6.58v-15.16q0-2.45-.99-3.47t-2.99-1.02q-1.3 0-2.34.52-1.03.53-1.73 1.5v17.63h-6.55zm27.31-5.95h6.56v5.95h4.08v4.6h-4.08v12.38q0 1.41.58 2.02t1.57.61q.52 0 .89-.06t.86-.19l.57 4.74q-.99.33-1.94.5-.94.17-2.04.17-3.39 0-5.22-1.86-1.83-1.87-1.83-5.91v-12.4h-3.55v-4.6h3.55z"/></svg>